<?xml version="1.0" encoding="utf-8"?>
<!-- Svg Vector Icons : http://www.onlinewebfonts.com/icon -->
<!DOCTYPE svg PUBLIC "-//W3C//DTD SVG 1.1//EN" "http://www.w3.org/Graphics/SVG/1.1/DTD/svg11.dtd">
<svg version="1.1" xmlns="http://www.w3.org/2000/svg" xmlns:xlink="http://www.w3.org/1999/xlink" x="0px" y="0px" viewBox="0 0 1000 1000" enable-background="new 0 0 1000 1000" xml:space="preserve">
<metadata> Svg Vector Icons : http://www.onlinewebfonts.com/icon </metadata>
<g><path d="M990,859.3V140.7C990,10,877.4,10,859.3,10H140.7C122.6,10,10,10,10,140.7v718.6C10,990,140.7,990,140.7,990h718.7c37.7,0,64.2-11,83.3-26.5c1.2-0.9,2.4-1.8,3.6-2.8c4.4-3.8,8.4-7.9,11.9-12.2c1-1.2,1.9-2.5,2.8-3.8C989.8,907,990,859.3,990,859.3z M143.8,80.9h706.8c17.8,0,64.3,0,64.3,64.3v706.8c0,0-0.2,37.1-28.5,54.9c-47.1-49.5-176.6-185.2-209.3-217.9c-24.3-24.3-49.5-29.8-64.8-29c-32.9,0.5-54.2,21.1-55.7,22.9l-67.7,59c-13.7,13-25.1,1.6-30.6-3.9c-41.4-41.4-121.6-113-131.7-121.9c-6.7-6.7-30.1-27.5-64-28.3c-17.7-0.9-44.5,4.7-71.5,31.7c-25.1,25.1-73.3,69.5-111.6,104.4V145.1C79.6,80.9,126.1,80.9,143.8,80.9z M79.6,849.5v-31.2c29.4-26.5,121.2-109.6,161.1-149.5c5.1-5.1,12.3-12,20.1-11.2c8.2,0,15.8,7.2,15.8,7.2l0,0l2.6,2.6c0.9,0.8,87.8,78.1,129.6,120c25.5,25.5,51.6,29.3,67.9,30.4c36-0.5,59.9-24.5,60.1-25l67.6-58.9c7-6.6,13.5-5.3,23.2,4.4c25.3,25.3,112.7,116.7,171,177.7c-152.4-0.1-592-0.3-650.4-0.3C77.4,915.9,79.6,849.5,79.6,849.5z"/><path d="M663.3,541.4c91.5,0,165.9-74.5,165.9-166.1c0-91.6-74.4-166.1-165.9-166.1c-91.5,0-165.9,74.5-165.9,166.1C497.4,466.9,571.9,541.4,663.3,541.4z M663.3,279.2c52.8,0,95.8,43.1,95.8,96.1c0,53-43,96.1-95.8,96.1c-52.8,0-95.8-43.1-95.8-96.1C567.4,322.3,610.5,279.2,663.3,279.2z"/></g>
</svg>